<?xml version="1.0" encoding="UTF-8"?><svg xmlns="http://www.w3.org/2000/svg" xmlns:xlink="http://www.w3.org/1999/xlink" height="35px" width="35px" viewBox="0 5 48 48" version="1.1"><g id="surface1"><path d="M32 42H16c-5.516 0-10-4.484-10-10V16c0-5.516 4.484-10 10-10h16c5.516 0 10 4.484 10 10v16c0 5.516-4.484 10-10 10z" fill="#304FFE"/><path d="M6 16v16c0 5.516 4.484 10 10 10h16c5.516 0 10-4.484 10-10V16c0-.96-.145-1.89-.398-2.77A32.857 32.857 0 0 0 21 6c-3.738 0-7.324.629-10.672 1.773C7.715 9.582 6 12.593 6 16z" fill="#304FFE" fill-opacity="0.290196"/><path d="M21 8a30.81 30.81 0 0 0-13.79 3.238A9.898 9.898 0 0 0 6 16v16c0 5.516 4.484 10 10 10h16c5.516 0 10-4.484 10-10V16.203C36.477 11.113 29.102 8 21 8z" fill="#6200EA"/><path d="M42 19.012C36.719 13.465 29.266 10 21 10a28.847 28.847 0 0 0-14.809 4.066A9.866 9.866 0 0 0 6 16v16c0 5.516 4.484 10 10 10h16c5.516 0 10-4.484 10-10z" fill="#673AB7"/><path d="M42 22.035C37.05 15.915 29.484 12 21 12c-5.55 0-10.71 1.676-15 4.55V32c0 5.516 4.484 10 10 10h16c5.516 0 10-4.484 10-10z" fill="#8E24AA"/><path d="M42 32v-6.559C37.547 18.56 29.809 14 21 14c-5.629 0-10.82 1.86-15 5v13c0 5.516 4.484 10 10 10h16c5.516 0 10-4.484 10-10z" fill="#C2185B"/><path d="M42 32v-2.379C38.41 21.598 30.36 16 21 16a22.904 22.904 0 0 0-15 5.57V32c0 5.516 4.484 10 10 10h16c5.516 0 10-4.484 10-10z" fill="#D81B60"/><path d="M41.586 34.836C39.652 25.234 31.172 18 21 18c-5.879 0-11.188 2.422-15 6.316V32c0 5.516 4.484 10 10 10h16c4.527 0 8.355-3.027 9.586-7.164z" fill="#F50057"/><path d="M39.95 38.04C39.45 27.995 31.167 20 21 20c-6.105 0-11.523 2.89-15 7.367V32c0 5.516 4.484 10 10 10h16c3.242 0 6.121-1.559 7.95-3.96z" fill="#FF1744"/><path d="M21 22c-6.496 0-12.14 3.648-15 9.004V32c0 5.516 4.484 10 10 10h16c2.23 0 4.285-.742 5.95-1.98.019-.34.05-.676.05-1.02 0-9.39-7.61-17-17-17z" fill="#FF5722"/><path d="M21 24c-6.953 0-12.781 4.734-14.484 11.152C7.84 39.125 11.59 42 16 42h16a9.945 9.945 0 0 0 3.816-.762c.11-.73.184-1.476.184-2.238 0-8.285-6.715-15-15-15z" fill="#FF6F00"/><path d="M21 26c-6.855 0-12.457 5.309-12.95 12.04C9.88 40.44 12.759 42 16 42h16c.574 0 1.133-.059 1.676-.152C33.883 40.93 34 39.98 34 39c0-7.18-5.82-13-13-13z" fill="#FF9800"/><path d="M31.574 42c.274-.953.426-1.96.426-3 0-6.074-4.926-11-11-11s-11 4.926-11 11c0 .344.02.684.05 1.02A9.931 9.931 0 0 0 16 42z" fill="#FFC107"/><path d="M21 30c-4.973 0-9 4.027-9 9 0 .79.113 1.555.305 2.281 1.144.461 2.39.719 3.695.719h13.477A8.983 8.983 0 0 0 30 39c0-4.973-4.027-9-9-9z" fill="#FFD54F"/><path d="M21 32.086a6.998 6.998 0 0 0-6.41 9.805c.46.062.93.109 1.41.109h11.36c.406-.887.64-1.875.64-2.914 0-3.867-3.133-7-7-7z" fill="#FFE082"/><path d="M21 34.086a5 5 0 0 0-5 5c0 1.09.36 2.094.953 2.914h8.094c.594-.82.953-1.824.953-2.914a5 5 0 0 0-5-5z" fill="#FFECB3"/><path d="M18 37h12c3.867 0 7-3.133 7-7V18c0-3.867-3.133-7-7-7H18c-3.867 0-7 3.133-7 7v12c0 3.867 3.133 7 7 7z" fill="none" stroke-width="2" stroke-linecap="butt" stroke-linejoin="miter" stroke="#FFF" stroke-opacity="1" stroke-miterlimit="10"/><path d="M30 24c0 3.313-2.688 6-6 6-3.313 0-6-2.688-6-6 0-3.313 2.688-6 6-6 3.313 0 6 2.688 6 6z" fill="none" stroke-width="2" stroke-linecap="butt" stroke-linejoin="miter" stroke="#FFF" stroke-opacity="1" stroke-miterlimit="10"/><path d="M32 16c0 .55-.45 1-1 1s-1-.45-1-1 .45-1 1-1 1 .45 1 1z" fill="#FFF"/></g><metadata><rdf:RDF xmlns:rdf="http://www.w3.org/1999/02/22-rdf-syntax-ns#" xmlns:rdfs="http://www.w3.org/2000/01/rdf-schema#" xmlns:dc="http://purl.org/dc/elements/1.1/"><rdf:Description about="https://iconscout.com/legal#licenses" dc:title="instagram" dc:description="instagram" dc:publisher="Iconscout" dc:date="2017-12-15" dc:format="image/svg+xml" dc:language="en"><dc:creator><rdf:Bag><rdf:li>Icons8</rdf:li></rdf:Bag></dc:creator></rdf:Description></rdf:RDF></metadata></svg>